<mxfile host="app.diagrams.net" modified="2023-05-31T23:29:39.684Z" agent="Mozilla/5.0 (Windows NT 10.0; Win64; x64) AppleWebKit/537.36 (KHTML, like Gecko) Chrome/113.0.0.0 Safari/537.36" etag="9BHdHbTZLsy3A5AW1sSq" version="21.3.6" type="github">
  <diagram name="Page-1" id="4UQ0ryMWkVk-9-Mvxbvw">
    <mxGraphModel dx="1686" dy="540" grid="1" gridSize="10" guides="1" tooltips="1" connect="1" arrows="1" fold="1" page="1" pageScale="1" pageWidth="850" pageHeight="1100" math="0" shadow="0">
      <root>
        <mxCell id="0" />
        <mxCell id="1" parent="0" />
        <mxCell id="SXsbWrXypiXTdrnz6xFy-1" value="Новый пользователь" style="rounded=0;whiteSpace=wrap;html=1;" parent="1" vertex="1">
          <mxGeometry x="350" y="50" width="150" height="30" as="geometry" />
        </mxCell>
        <mxCell id="SXsbWrXypiXTdrnz6xFy-44" value="" style="edgeStyle=orthogonalEdgeStyle;rounded=0;orthogonalLoop=1;jettySize=auto;html=1;" parent="1" source="SXsbWrXypiXTdrnz6xFy-6" target="SXsbWrXypiXTdrnz6xFy-37" edge="1">
          <mxGeometry relative="1" as="geometry" />
        </mxCell>
        <mxCell id="SXsbWrXypiXTdrnz6xFy-6" value="Либерализм" style="rounded=0;whiteSpace=wrap;html=1;" parent="1" vertex="1">
          <mxGeometry x="12.5" y="277.5" width="80" height="30" as="geometry" />
        </mxCell>
        <mxCell id="SXsbWrXypiXTdrnz6xFy-42" value="" style="edgeStyle=orthogonalEdgeStyle;rounded=0;orthogonalLoop=1;jettySize=auto;html=1;" parent="1" source="SXsbWrXypiXTdrnz6xFy-7" target="SXsbWrXypiXTdrnz6xFy-39" edge="1">
          <mxGeometry relative="1" as="geometry" />
        </mxCell>
        <mxCell id="SXsbWrXypiXTdrnz6xFy-7" value="Коммунизм" style="rounded=0;whiteSpace=wrap;html=1;" parent="1" vertex="1">
          <mxGeometry x="137.5" y="287.5" width="80" height="30" as="geometry" />
        </mxCell>
        <mxCell id="SXsbWrXypiXTdrnz6xFy-43" value="" style="edgeStyle=orthogonalEdgeStyle;rounded=0;orthogonalLoop=1;jettySize=auto;html=1;" parent="1" source="SXsbWrXypiXTdrnz6xFy-8" target="SXsbWrXypiXTdrnz6xFy-38" edge="1">
          <mxGeometry relative="1" as="geometry" />
        </mxCell>
        <mxCell id="SXsbWrXypiXTdrnz6xFy-8" value="Монархисты" style="rounded=0;whiteSpace=wrap;html=1;" parent="1" vertex="1">
          <mxGeometry x="-109.5" y="307.5" width="80" height="30" as="geometry" />
        </mxCell>
        <mxCell id="SXsbWrXypiXTdrnz6xFy-41" value="" style="edgeStyle=orthogonalEdgeStyle;rounded=0;orthogonalLoop=1;jettySize=auto;html=1;" parent="1" source="SXsbWrXypiXTdrnz6xFy-9" target="SXsbWrXypiXTdrnz6xFy-40" edge="1">
          <mxGeometry relative="1" as="geometry" />
        </mxCell>
        <mxCell id="SXsbWrXypiXTdrnz6xFy-9" value="Национализм" style="rounded=0;whiteSpace=wrap;html=1;" parent="1" vertex="1">
          <mxGeometry x="245" y="260" width="95" height="30" as="geometry" />
        </mxCell>
        <mxCell id="SXsbWrXypiXTdrnz6xFy-36" value="" style="edgeStyle=orthogonalEdgeStyle;rounded=0;orthogonalLoop=1;jettySize=auto;html=1;" parent="1" source="SXsbWrXypiXTdrnz6xFy-21" target="SXsbWrXypiXTdrnz6xFy-25" edge="1">
          <mxGeometry relative="1" as="geometry" />
        </mxCell>
        <mxCell id="WoUbzy72UWEqD_PmA_qL-19" style="edgeStyle=orthogonalEdgeStyle;rounded=0;orthogonalLoop=1;jettySize=auto;html=1;entryX=0.5;entryY=0;entryDx=0;entryDy=0;" edge="1" parent="1" source="SXsbWrXypiXTdrnz6xFy-21" target="WoUbzy72UWEqD_PmA_qL-14">
          <mxGeometry relative="1" as="geometry">
            <Array as="points">
              <mxPoint x="425" y="180" />
              <mxPoint x="293" y="180" />
            </Array>
          </mxGeometry>
        </mxCell>
        <mxCell id="WoUbzy72UWEqD_PmA_qL-76" style="edgeStyle=orthogonalEdgeStyle;rounded=0;orthogonalLoop=1;jettySize=auto;html=1;entryX=0;entryY=0.75;entryDx=0;entryDy=0;" edge="1" parent="1" source="SXsbWrXypiXTdrnz6xFy-21" target="WoUbzy72UWEqD_PmA_qL-75">
          <mxGeometry relative="1" as="geometry" />
        </mxCell>
        <mxCell id="SXsbWrXypiXTdrnz6xFy-21" value="Акивности" style="rounded=0;whiteSpace=wrap;html=1;" parent="1" vertex="1">
          <mxGeometry x="350" y="140" width="150" height="30" as="geometry" />
        </mxCell>
        <mxCell id="SXsbWrXypiXTdrnz6xFy-35" value="" style="edgeStyle=orthogonalEdgeStyle;rounded=0;orthogonalLoop=1;jettySize=auto;html=1;" parent="1" source="SXsbWrXypiXTdrnz6xFy-22" target="SXsbWrXypiXTdrnz6xFy-25" edge="1">
          <mxGeometry relative="1" as="geometry" />
        </mxCell>
        <mxCell id="SXsbWrXypiXTdrnz6xFy-22" value="Рабочий" style="rounded=0;whiteSpace=wrap;html=1;" parent="1" vertex="1">
          <mxGeometry x="1540" y="160" width="90" height="30" as="geometry" />
        </mxCell>
        <mxCell id="SXsbWrXypiXTdrnz6xFy-34" value="" style="edgeStyle=orthogonalEdgeStyle;rounded=0;orthogonalLoop=1;jettySize=auto;html=1;" parent="1" source="SXsbWrXypiXTdrnz6xFy-23" target="SXsbWrXypiXTdrnz6xFy-26" edge="1">
          <mxGeometry relative="1" as="geometry" />
        </mxCell>
        <mxCell id="SXsbWrXypiXTdrnz6xFy-23" value="Ст. Рабочий" style="rounded=0;whiteSpace=wrap;html=1;" parent="1" vertex="1">
          <mxGeometry x="1540" y="200" width="90" height="30" as="geometry" />
        </mxCell>
        <mxCell id="SXsbWrXypiXTdrnz6xFy-33" value="" style="edgeStyle=orthogonalEdgeStyle;rounded=0;orthogonalLoop=1;jettySize=auto;html=1;" parent="1" source="SXsbWrXypiXTdrnz6xFy-25" target="SXsbWrXypiXTdrnz6xFy-27" edge="1">
          <mxGeometry relative="1" as="geometry" />
        </mxCell>
        <mxCell id="SXsbWrXypiXTdrnz6xFy-25" value="Менеджер" style="rounded=0;whiteSpace=wrap;html=1;" parent="1" vertex="1">
          <mxGeometry x="1540" y="240" width="90" height="30" as="geometry" />
        </mxCell>
        <mxCell id="SXsbWrXypiXTdrnz6xFy-32" value="" style="edgeStyle=orthogonalEdgeStyle;rounded=0;orthogonalLoop=1;jettySize=auto;html=1;" parent="1" source="SXsbWrXypiXTdrnz6xFy-26" target="SXsbWrXypiXTdrnz6xFy-28" edge="1">
          <mxGeometry relative="1" as="geometry" />
        </mxCell>
        <mxCell id="SXsbWrXypiXTdrnz6xFy-26" value="Администратор" style="rounded=0;whiteSpace=wrap;html=1;" parent="1" vertex="1">
          <mxGeometry x="1540" y="280" width="90" height="30" as="geometry" />
        </mxCell>
        <mxCell id="SXsbWrXypiXTdrnz6xFy-31" value="" style="edgeStyle=orthogonalEdgeStyle;rounded=0;orthogonalLoop=1;jettySize=auto;html=1;" parent="1" source="SXsbWrXypiXTdrnz6xFy-27" target="SXsbWrXypiXTdrnz6xFy-28" edge="1">
          <mxGeometry relative="1" as="geometry" />
        </mxCell>
        <mxCell id="SXsbWrXypiXTdrnz6xFy-27" value="Со-владелец" style="rounded=0;whiteSpace=wrap;html=1;" parent="1" vertex="1">
          <mxGeometry x="1540" y="320" width="90" height="30" as="geometry" />
        </mxCell>
        <mxCell id="SXsbWrXypiXTdrnz6xFy-28" value="Владелец" style="rounded=0;whiteSpace=wrap;html=1;" parent="1" vertex="1">
          <mxGeometry x="1540" y="360" width="90" height="30" as="geometry" />
        </mxCell>
        <mxCell id="WoUbzy72UWEqD_PmA_qL-29" style="edgeStyle=orthogonalEdgeStyle;rounded=0;orthogonalLoop=1;jettySize=auto;html=1;entryX=0;entryY=0.5;entryDx=0;entryDy=0;" edge="1" parent="1" source="SXsbWrXypiXTdrnz6xFy-37" target="WoUbzy72UWEqD_PmA_qL-28">
          <mxGeometry relative="1" as="geometry">
            <Array as="points">
              <mxPoint x="100" y="384" />
              <mxPoint x="100" y="505" />
            </Array>
          </mxGeometry>
        </mxCell>
        <mxCell id="SXsbWrXypiXTdrnz6xFy-37" value="Робота:&lt;br&gt;100/ч&lt;br&gt;10 % налога&lt;br&gt;Доступ к Банку&amp;nbsp;" style="rounded=0;whiteSpace=wrap;html=1;" parent="1" vertex="1">
          <mxGeometry x="12.5" y="327.5" width="80" height="112.5" as="geometry" />
        </mxCell>
        <mxCell id="WoUbzy72UWEqD_PmA_qL-27" style="edgeStyle=orthogonalEdgeStyle;rounded=0;orthogonalLoop=1;jettySize=auto;html=1;" edge="1" parent="1" source="SXsbWrXypiXTdrnz6xFy-38">
          <mxGeometry relative="1" as="geometry">
            <mxPoint x="93.05263157894728" y="605" as="targetPoint" />
            <Array as="points">
              <mxPoint x="-70" y="570" />
              <mxPoint x="93" y="570" />
            </Array>
          </mxGeometry>
        </mxCell>
        <mxCell id="SXsbWrXypiXTdrnz6xFy-38" value="Робота:&lt;br&gt;500/ч&lt;br&gt;Казна в ручном режиими&amp;nbsp;&lt;br&gt;&amp;nbsp;Вход от главы" style="rounded=0;whiteSpace=wrap;html=1;" parent="1" vertex="1">
          <mxGeometry x="-104.5" y="370" width="70" height="100" as="geometry" />
        </mxCell>
        <mxCell id="WoUbzy72UWEqD_PmA_qL-30" style="edgeStyle=orthogonalEdgeStyle;rounded=0;orthogonalLoop=1;jettySize=auto;html=1;" edge="1" parent="1" source="SXsbWrXypiXTdrnz6xFy-39" target="WoUbzy72UWEqD_PmA_qL-28">
          <mxGeometry relative="1" as="geometry" />
        </mxCell>
        <mxCell id="SXsbWrXypiXTdrnz6xFy-39" value="Робота:&lt;br&gt;150/ч&lt;br&gt;15 % налгов&lt;br&gt;ВСЕ в партию&lt;br&gt;10 % от всего кеша партии" style="rounded=0;whiteSpace=wrap;html=1;" parent="1" vertex="1">
          <mxGeometry x="137.5" y="337.5" width="80" height="100" as="geometry" />
        </mxCell>
        <mxCell id="WoUbzy72UWEqD_PmA_qL-31" style="edgeStyle=orthogonalEdgeStyle;rounded=0;orthogonalLoop=1;jettySize=auto;html=1;entryX=1;entryY=0.75;entryDx=0;entryDy=0;" edge="1" parent="1" source="SXsbWrXypiXTdrnz6xFy-40" target="WoUbzy72UWEqD_PmA_qL-28">
          <mxGeometry relative="1" as="geometry">
            <Array as="points">
              <mxPoint x="233" y="385" />
              <mxPoint x="233" y="465" />
              <mxPoint x="257" y="465" />
              <mxPoint x="257" y="513" />
            </Array>
          </mxGeometry>
        </mxCell>
        <mxCell id="SXsbWrXypiXTdrnz6xFy-40" value="Робота:&lt;br&gt;80/ч&lt;br&gt;1000 за каждого в партии" style="rounded=0;whiteSpace=wrap;html=1;" parent="1" vertex="1">
          <mxGeometry x="252.5" y="330" width="80" height="110" as="geometry" />
        </mxCell>
        <mxCell id="SXsbWrXypiXTdrnz6xFy-45" value="Примечание:&lt;br&gt;Инт.,Cила.,Лов.&lt;br&gt;раз в сутки" style="rounded=0;whiteSpace=wrap;html=1;" parent="1" vertex="1">
          <mxGeometry x="-690" y="170" width="120" height="60" as="geometry" />
        </mxCell>
        <mxCell id="fhXkXFG8-JS9nN4QEYIB-1" value="Повышение уровня персонажа происходить при достижении определенного количества очков в каждой категории.Когда персонаж набирает 10 очков интеллекта, 10 очков силы, 10 очков ловкости и имеет баланс монет не менее 1000, его уровень повышается на один." style="rounded=0;whiteSpace=wrap;html=1;" parent="1" vertex="1">
          <mxGeometry x="-740" y="20" width="310" height="115" as="geometry" />
        </mxCell>
        <mxCell id="WoUbzy72UWEqD_PmA_qL-63" style="edgeStyle=orthogonalEdgeStyle;rounded=0;orthogonalLoop=1;jettySize=auto;html=1;" edge="1" parent="1" source="fhXkXFG8-JS9nN4QEYIB-16" target="WoUbzy72UWEqD_PmA_qL-62">
          <mxGeometry relative="1" as="geometry" />
        </mxCell>
        <mxCell id="fhXkXFG8-JS9nN4QEYIB-16" value="Парламент&lt;br&gt;50 человек" style="rounded=0;whiteSpace=wrap;html=1;" parent="1" vertex="1">
          <mxGeometry x="30" y="610" width="120" height="60" as="geometry" />
        </mxCell>
        <mxCell id="WoUbzy72UWEqD_PmA_qL-15" style="edgeStyle=orthogonalEdgeStyle;rounded=0;orthogonalLoop=1;jettySize=auto;html=1;entryX=0.5;entryY=0;entryDx=0;entryDy=0;" edge="1" parent="1" source="WoUbzy72UWEqD_PmA_qL-14" target="SXsbWrXypiXTdrnz6xFy-9">
          <mxGeometry relative="1" as="geometry" />
        </mxCell>
        <mxCell id="WoUbzy72UWEqD_PmA_qL-14" value="3 Уровень&amp;nbsp;&lt;br&gt;" style="rounded=0;whiteSpace=wrap;html=1;" vertex="1" parent="1">
          <mxGeometry x="232.5" y="200" width="120" height="30" as="geometry" />
        </mxCell>
        <mxCell id="WoUbzy72UWEqD_PmA_qL-16" value="5 Уровень&amp;nbsp;" style="rounded=0;whiteSpace=wrap;html=1;" vertex="1" parent="1">
          <mxGeometry x="112.5" y="227.5" width="120" height="30" as="geometry" />
        </mxCell>
        <mxCell id="WoUbzy72UWEqD_PmA_qL-17" value="5&amp;nbsp;Уровень&amp;nbsp;" style="rounded=0;whiteSpace=wrap;html=1;" vertex="1" parent="1">
          <mxGeometry x="-7.5" y="227.5" width="120" height="30" as="geometry" />
        </mxCell>
        <mxCell id="WoUbzy72UWEqD_PmA_qL-53" style="edgeStyle=orthogonalEdgeStyle;rounded=0;orthogonalLoop=1;jettySize=auto;html=1;entryX=1;entryY=0.5;entryDx=0;entryDy=0;" edge="1" parent="1" source="WoUbzy72UWEqD_PmA_qL-18" target="WoUbzy72UWEqD_PmA_qL-49">
          <mxGeometry relative="1" as="geometry" />
        </mxCell>
        <mxCell id="WoUbzy72UWEqD_PmA_qL-18" value="10&amp;nbsp;Уровень&amp;nbsp;" style="rounded=0;whiteSpace=wrap;html=1;" vertex="1" parent="1">
          <mxGeometry x="-129.5" y="257.5" width="120" height="30" as="geometry" />
        </mxCell>
        <mxCell id="WoUbzy72UWEqD_PmA_qL-22" value="" style="endArrow=classic;html=1;rounded=0;entryX=0.5;entryY=0;entryDx=0;entryDy=0;" edge="1" parent="1" target="WoUbzy72UWEqD_PmA_qL-17">
          <mxGeometry width="50" height="50" relative="1" as="geometry">
            <mxPoint x="180" y="180" as="sourcePoint" />
            <mxPoint x="50" y="360" as="targetPoint" />
            <Array as="points">
              <mxPoint x="53" y="180" />
            </Array>
          </mxGeometry>
        </mxCell>
        <mxCell id="WoUbzy72UWEqD_PmA_qL-24" value="" style="endArrow=classic;html=1;rounded=0;" edge="1" parent="1" target="WoUbzy72UWEqD_PmA_qL-18">
          <mxGeometry width="50" height="50" relative="1" as="geometry">
            <mxPoint x="70" y="180" as="sourcePoint" />
            <mxPoint x="-70" y="282.5" as="targetPoint" />
            <Array as="points">
              <mxPoint x="-70" y="180" />
            </Array>
          </mxGeometry>
        </mxCell>
        <mxCell id="WoUbzy72UWEqD_PmA_qL-25" value="" style="endArrow=classic;html=1;rounded=0;entryX=0.5;entryY=0;entryDx=0;entryDy=0;" edge="1" parent="1">
          <mxGeometry width="50" height="50" relative="1" as="geometry">
            <mxPoint x="290" y="180" as="sourcePoint" />
            <mxPoint x="176.73" y="222.5" as="targetPoint" />
            <Array as="points">
              <mxPoint x="177" y="180" />
            </Array>
          </mxGeometry>
        </mxCell>
        <mxCell id="WoUbzy72UWEqD_PmA_qL-32" style="edgeStyle=orthogonalEdgeStyle;rounded=0;orthogonalLoop=1;jettySize=auto;html=1;" edge="1" parent="1" source="WoUbzy72UWEqD_PmA_qL-28">
          <mxGeometry relative="1" as="geometry">
            <mxPoint x="93.05263157894728" y="605" as="targetPoint" />
            <Array as="points">
              <mxPoint x="177" y="570" />
              <mxPoint x="93" y="570" />
            </Array>
          </mxGeometry>
        </mxCell>
        <mxCell id="WoUbzy72UWEqD_PmA_qL-28" value="10 Уровень&amp;nbsp;" style="rounded=0;whiteSpace=wrap;html=1;" vertex="1" parent="1">
          <mxGeometry x="117.5" y="490" width="120" height="30" as="geometry" />
        </mxCell>
        <mxCell id="WoUbzy72UWEqD_PmA_qL-47" style="edgeStyle=orthogonalEdgeStyle;rounded=0;orthogonalLoop=1;jettySize=auto;html=1;entryX=0.5;entryY=0;entryDx=0;entryDy=0;" edge="1" parent="1" source="WoUbzy72UWEqD_PmA_qL-34" target="WoUbzy72UWEqD_PmA_qL-45">
          <mxGeometry relative="1" as="geometry" />
        </mxCell>
        <mxCell id="WoUbzy72UWEqD_PmA_qL-34" value="Член партии&amp;nbsp;" style="rounded=0;whiteSpace=wrap;html=1;" vertex="1" parent="1">
          <mxGeometry x="-290" y="270" width="90" height="30" as="geometry" />
        </mxCell>
        <mxCell id="WoUbzy72UWEqD_PmA_qL-41" value="Секретарь&amp;nbsp; партии" style="rounded=0;whiteSpace=wrap;html=1;" vertex="1" parent="1">
          <mxGeometry x="-290" y="310" width="90" height="30" as="geometry" />
        </mxCell>
        <mxCell id="WoUbzy72UWEqD_PmA_qL-42" value="Руководиль меньшенства&lt;br&gt;партии" style="rounded=0;whiteSpace=wrap;html=1;" vertex="1" parent="1">
          <mxGeometry x="-290" y="400" width="90" height="50" as="geometry" />
        </mxCell>
        <mxCell id="WoUbzy72UWEqD_PmA_qL-43" value="Руководиль большенства&lt;br&gt;партии" style="rounded=0;whiteSpace=wrap;html=1;" vertex="1" parent="1">
          <mxGeometry x="-290" y="470" width="90" height="50" as="geometry" />
        </mxCell>
        <mxCell id="WoUbzy72UWEqD_PmA_qL-44" value="Со-Руковидитель партии" style="rounded=0;whiteSpace=wrap;html=1;" vertex="1" parent="1">
          <mxGeometry x="-290" y="540" width="90" height="50" as="geometry" />
        </mxCell>
        <mxCell id="WoUbzy72UWEqD_PmA_qL-45" value="Руководитель партии" style="rounded=0;whiteSpace=wrap;html=1;" vertex="1" parent="1">
          <mxGeometry x="-290" y="610" width="90" height="30" as="geometry" />
        </mxCell>
        <mxCell id="WoUbzy72UWEqD_PmA_qL-49" value="Обл. Депутат" style="rounded=0;whiteSpace=wrap;html=1;" vertex="1" parent="1">
          <mxGeometry x="-290" y="350" width="90" height="30" as="geometry" />
        </mxCell>
        <mxCell id="WoUbzy72UWEqD_PmA_qL-52" style="edgeStyle=orthogonalEdgeStyle;rounded=0;orthogonalLoop=1;jettySize=auto;html=1;" edge="1" parent="1" source="WoUbzy72UWEqD_PmA_qL-51">
          <mxGeometry relative="1" as="geometry">
            <mxPoint x="-290" y="322.5526315789474" as="targetPoint" />
          </mxGeometry>
        </mxCell>
        <mxCell id="WoUbzy72UWEqD_PmA_qL-51" value="10 уровень" style="rounded=0;whiteSpace=wrap;html=1;" vertex="1" parent="1">
          <mxGeometry x="-430" y="306.25" width="80" height="32.5" as="geometry" />
        </mxCell>
        <mxCell id="WoUbzy72UWEqD_PmA_qL-58" style="edgeStyle=orthogonalEdgeStyle;rounded=0;orthogonalLoop=1;jettySize=auto;html=1;" edge="1" parent="1" source="WoUbzy72UWEqD_PmA_qL-54" target="WoUbzy72UWEqD_PmA_qL-49">
          <mxGeometry relative="1" as="geometry" />
        </mxCell>
        <mxCell id="WoUbzy72UWEqD_PmA_qL-54" value="15 уровень" style="rounded=0;whiteSpace=wrap;html=1;" vertex="1" parent="1">
          <mxGeometry x="-430" y="350" width="80" height="32.5" as="geometry" />
        </mxCell>
        <mxCell id="WoUbzy72UWEqD_PmA_qL-62" value="Прием ЛЮБОГО законопроекта на сервере" style="rounded=0;whiteSpace=wrap;html=1;" vertex="1" parent="1">
          <mxGeometry x="-149.5" y="610" width="120" height="60" as="geometry" />
        </mxCell>
        <mxCell id="WoUbzy72UWEqD_PmA_qL-64" value="Написать 3 статьи конститую" style="rounded=0;whiteSpace=wrap;html=1;" vertex="1" parent="1">
          <mxGeometry x="-330" y="740" width="120" height="60" as="geometry" />
        </mxCell>
        <mxCell id="WoUbzy72UWEqD_PmA_qL-68" style="edgeStyle=orthogonalEdgeStyle;rounded=0;orthogonalLoop=1;jettySize=auto;html=1;" edge="1" parent="1" source="WoUbzy72UWEqD_PmA_qL-66" target="WoUbzy72UWEqD_PmA_qL-67">
          <mxGeometry relative="1" as="geometry" />
        </mxCell>
        <mxCell id="WoUbzy72UWEqD_PmA_qL-66" value="Старт" style="rounded=0;whiteSpace=wrap;html=1;" vertex="1" parent="1">
          <mxGeometry x="-330" y="660" width="120" height="60" as="geometry" />
        </mxCell>
        <mxCell id="WoUbzy72UWEqD_PmA_qL-67" value="Выборы парамента и президента через неделю после старта" style="rounded=0;whiteSpace=wrap;html=1;" vertex="1" parent="1">
          <mxGeometry x="-330" y="830" width="120" height="60" as="geometry" />
        </mxCell>
        <mxCell id="WoUbzy72UWEqD_PmA_qL-69" value="Президент" style="rounded=0;whiteSpace=wrap;html=1;" vertex="1" parent="1">
          <mxGeometry x="-149.5" y="750" width="120" height="60" as="geometry" />
        </mxCell>
        <mxCell id="WoUbzy72UWEqD_PmA_qL-70" value="Право вето&lt;br&gt;Право спустить закон&amp;nbsp;" style="rounded=0;whiteSpace=wrap;html=1;" vertex="1" parent="1">
          <mxGeometry x="-149.5" y="830" width="120" height="60" as="geometry" />
        </mxCell>
        <mxCell id="WoUbzy72UWEqD_PmA_qL-71" value="Требование:&lt;br&gt;Президент выдвижение от главы партии. Стоимость&amp;nbsp; 50 000 с казны партии.&amp;nbsp;" style="rounded=0;whiteSpace=wrap;html=1;" vertex="1" parent="1">
          <mxGeometry x="-460" y="600" width="100" height="110" as="geometry" />
        </mxCell>
        <mxCell id="WoUbzy72UWEqD_PmA_qL-75" value="Прогулка&amp;nbsp;" style="rounded=0;whiteSpace=wrap;html=1;" vertex="1" parent="1">
          <mxGeometry x="470" y="230" width="120" height="30" as="geometry" />
        </mxCell>
        <mxCell id="WoUbzy72UWEqD_PmA_qL-78" value="Работа" style="rounded=0;whiteSpace=wrap;html=1;" vertex="1" parent="1">
          <mxGeometry x="470" y="270" width="120" height="30" as="geometry" />
        </mxCell>
        <mxCell id="WoUbzy72UWEqD_PmA_qL-79" value="Учеба" style="rounded=0;whiteSpace=wrap;html=1;" vertex="1" parent="1">
          <mxGeometry x="470" y="310" width="120" height="30" as="geometry" />
        </mxCell>
        <mxCell id="WoUbzy72UWEqD_PmA_qL-81" value="Ночной клуб" style="rounded=0;whiteSpace=wrap;html=1;" vertex="1" parent="1">
          <mxGeometry x="470" y="350" width="120" height="30" as="geometry" />
        </mxCell>
        <mxCell id="WoUbzy72UWEqD_PmA_qL-99" style="edgeStyle=orthogonalEdgeStyle;rounded=0;orthogonalLoop=1;jettySize=auto;html=1;entryX=0;entryY=0.5;entryDx=0;entryDy=0;" edge="1" parent="1" source="WoUbzy72UWEqD_PmA_qL-92" target="WoUbzy72UWEqD_PmA_qL-96">
          <mxGeometry relative="1" as="geometry" />
        </mxCell>
        <mxCell id="WoUbzy72UWEqD_PmA_qL-92" value="Яхта" style="rounded=0;whiteSpace=wrap;html=1;" vertex="1" parent="1">
          <mxGeometry x="610" y="230" width="120" height="32.5" as="geometry" />
        </mxCell>
        <mxCell id="WoUbzy72UWEqD_PmA_qL-96" value="Покаться на яхте&amp;nbsp;" style="rounded=0;whiteSpace=wrap;html=1;" vertex="1" parent="1">
          <mxGeometry x="750" y="230" width="120" height="32.5" as="geometry" />
        </mxCell>
        <mxCell id="WoUbzy72UWEqD_PmA_qL-98" value="Постоять у яхты" style="rounded=0;whiteSpace=wrap;html=1;" vertex="1" parent="1">
          <mxGeometry x="470" y="390" width="120" height="32.5" as="geometry" />
        </mxCell>
        <mxCell id="WoUbzy72UWEqD_PmA_qL-101" value="Спорт кар" style="rounded=0;whiteSpace=wrap;html=1;" vertex="1" parent="1">
          <mxGeometry x="610" y="270" width="120" height="32.5" as="geometry" />
        </mxCell>
        <mxCell id="WoUbzy72UWEqD_PmA_qL-102" value="Вертолет" style="rounded=0;whiteSpace=wrap;html=1;" vertex="1" parent="1">
          <mxGeometry x="610" y="310" width="120" height="32.5" as="geometry" />
        </mxCell>
        <mxCell id="WoUbzy72UWEqD_PmA_qL-103" value="Остров" style="rounded=0;whiteSpace=wrap;html=1;" vertex="1" parent="1">
          <mxGeometry x="610" y="350" width="120" height="32.5" as="geometry" />
        </mxCell>
        <mxCell id="WoUbzy72UWEqD_PmA_qL-104" value="Особняк в горах" style="rounded=0;whiteSpace=wrap;html=1;" vertex="1" parent="1">
          <mxGeometry x="610" y="390" width="120" height="32.5" as="geometry" />
        </mxCell>
        <mxCell id="WoUbzy72UWEqD_PmA_qL-108" style="edgeStyle=orthogonalEdgeStyle;rounded=0;orthogonalLoop=1;jettySize=auto;html=1;" edge="1" parent="1" source="WoUbzy72UWEqD_PmA_qL-107" target="WoUbzy72UWEqD_PmA_qL-75">
          <mxGeometry relative="1" as="geometry" />
        </mxCell>
        <mxCell id="WoUbzy72UWEqD_PmA_qL-107" value="Механика усталости&amp;nbsp;" style="rounded=0;whiteSpace=wrap;html=1;" vertex="1" parent="1">
          <mxGeometry x="470" y="185" width="120" height="30" as="geometry" />
        </mxCell>
      </root>
    </mxGraphModel>
  </diagram>
</mxfile>
